/* XPM */
static char * SHIT_xpm[] = {
/* width height num_colors chars_per_pixel */
"16 16 189 3",
/* colors */
"    c #FAA3C5",
"!   c #F9749C",
"#   c #EC95B7",
"$   c #E68FB1",
"%   c #E5628A",
"&   c #E290B7",
"'   c #DF8FB8",
"(   c #DD5988",
")   c #DC8AB1",
"*   c #DB557E",
"+   c #D889B1",
",   c #D686AF",
"-   c #D5BDD0",
".   c #D4A1B5",
"/   c #D47194",
"0   c #D3AAC6",
"1   c #D3A0B4",
"2   c #D36F93",
"3   c #D35D84",
"4   c #D2BBCE",
"5   c #D283AB",
"6   c #D14B74",
"7   c #D0B9D5",
"8   c #D05C87",
"9   c #CFB7CB",
":   c #CF6C90",
";   c #CEB6CA",
"<   c #CDA5C0",
"=   c #CC466F",
">   c #C9809D",
"?   c #C9668A",
"@   c #C77E9B",
"A   c #C34F7B",
"B   c #C26B8D",
"C   c #C198B3",
"D   c #BE4772",
"E   c #BD8A9E",
"F   c #BC899C",
"G   c #BC3766",
"H   c #BB456F",
"I   c #BB375F",
"J   c #BAA3BF",
"K   c #BA85A4",
"L   c #B990AB",
"M   c #B9365E",
"N   c #B7A1BD",
"O   c #B66F90",
"P   c #B598B4",
"Q   c #B53F66",
"R   c #B5254F",
"S   c #B42F5E",
"T   c #B2234D",
"U   c #B2204C",
"V   c #AF3B67",
"W   c #AF254D",
"X   c #AE6B91",
"Y   c #AE2649",
"Z   c #AE1D50",
"[   c #AD1D47",
"]   c #AD1C4F",
"^   c #AC375E",
"_   c #AC2149",
"`   c #AB2048",
"a   c #AB1C46",
"b   c #AB1B4E",
"c   c #AA3561",
"d   c #AA2655",
"e   c #AA2345",
"f   c #AA2249",
"g   c #AA1844",
"h   c #A9335D",
"i   c #A92554",
"j   c #A91F47",
"k   c #A82143",
"l   c #A71F46",
"m   c #A71F42",
"n   c #A62C51",
"o   c #A62145",
"p   c #A61441",
"q   c #A52149",
"r   c #A42451",
"s   c #A41F43",
"t   c #A32D57",
"u   c #A32650",
"v   c #A32559",
"w   c #A31E41",
"x   c #A22959",
"y   c #A21E4D",
"z   c #A16F8B",
"{   c #A16C8C",
"|   c #A1315D",
"}   c #A1315B",
"~   c #A12256",
" !  c #A1224F",
"!!  c #A02155",
"#!  c #A0204E",
"$!  c #A01B3F",
"%!  c #9F2950",
"&!  c #9F2555",
"'!  c #9E4D74",
"(!  c #9E1E4C",
")!  c #9D5471",
"*!  c #9D2353",
"+!  c #9C5475",
",!  c #9C2D55",
"-!  c #9C2544",
".!  c #9C2448",
"/!  c #9C2446",
"0!  c #9C1F4A",
"1!  c #9B5A80",
"2!  c #9B4A70",
"3!  c #9B2C54",
"4!  c #9B2B56",
"5!  c #992A51",
"6!  c #992953",
"7!  c #97557B",
"8!  c #972852",
"9!  c #972850",
":!  c #962653",
";!  c #954D6E",
"<!  c #952650",
"=!  c #952552",
">!  c #951B40",
"?!  c #94254F",
"@!  c #94254D",
"A!  c #93345B",
"B!  c #93234E",
"C!  c #922A4D",
"D!  c #92224E",
"E!  c #915C7C",
"F!  c #912F5C",
"G!  c #90375E",
"H!  c #903156",
"I!  c #8F7894",
"J!  c #8F4664",
"K!  c #8F3054",
"L!  c #8E2C58",
"M!  c #8E274A",
"N!  c #8D5877",
"O!  c #8D2E55",
"P!  c #8C486F",
"Q!  c #8C2E52",
"R!  c #8C2D54",
"S!  c #8C2956",
"T!  c #8B4465",
"U!  c #8B335A",
"V!  c #8A2855",
"W!  c #893153",
"X!  c #882F56",
"Y!  c #87274E",
"Z!  c #864269",
"[!  c #862F51",
"]!  c #852E50",
"^!  c #833652",
"_!  c #832B52",
"`!  c #82384E",
"a!  c #813858",
"b!  c #813450",
"c!  c #80627F",
"d!  c #803756",
"e!  c #7F617D",
"f!  c #7F4D6A",
"g!  c #7F3D63",
"h!  c #7E3659",
"i!  c #7D3451",
"j!  c #7D334A",
"k!  c #7C3558",
"l!  c #7C3350",
"m!  c #7B4965",
"n!  c #7B3656",
"o!  c #7A395F",
"p!  c #783454",
"q!  c #763259",
"r!  c #723955",
"s!  c #6D4059",
"t!  c #6D2944",
"u!  c #694755",
"v!  c #693C54",
"w!  c #683652",
"x!  c #664152",
"y!  c #643F50",
"z!  c #634256",
"{!  c #633E4F",
"|!  c #633D51",
"}!  c #632A46",
"~!  c #624155",
" #  c #62404E",
"!#  c #613D4E",
"##  c #5C2E40",
/* pixels */
"## ~! z! }! r! s! v! |! |! !# !# x! x! {! y! ## ",
"C! @! @! ~  v  &! &! V  c  :! D! <! 8! @! @! C! ",
"M! 3! 5! !! ~  *! x  8  A  |  =! <! 6! 5! 3! M! ",
"/! U  U  k  Y  d  i  2  ?  G! U! B! ?! U  U  /! ",
"/! g  p  m  e  y  i  /  :  X! _! }  4! p  g  /! ",
"-! W  j  s  o  %! Q  F  E  f! w! O! Y! j  W  -! ",
"-! `  _  $! w  ^  3  1  .  z  m! A! R! _  `  -! ",
"-! @! 5! q  I  B  #  9  4  N  I! P! q! 5! @! -! ",
"-! 9! ,! M  %  $     ;  -  7  J  X  Z! ,! 9! -! ",
".! ]! W! 6  !  @  >  <  0  P  P  K  E! W! ]! .! ",
".! W! [! =  *  J! )! L  C  e! c! {  N! [! W! .! ",
"n  Z  ]  f  l  t  D  '  ,  7! o! V! F! ]  Z  n  ",
">! Z  b  f  f  h  H  +  5  1! g! S! L! b  Z  >! ",
"0! r   ! R  [  G  (  &  )  O  +! K! Q!  ! r  0! ",
"u  (! #! a  T  S  S  2! '! ;! T! H! Q! #! (! u  ",
"t! u!  # `! j! a! d! h! k! n! p! l! i! ^! b! t! "
};
