/* XPM */
static char * 1Star[] = {
/* width height num_colors chars_per_pixel */
"13 20 11 1",
/* colors */
"  c None",
"! c #FFFFFF",
"# c #F6F6F6",
"$ c #DBDBDB",
"% c #D2D2D2",
"& c #C9C9C9",
"' c #B7B7B7",
"( c #A5A5A5",
") c #8A8A8A",
"* c #818181",
"+ c #707070",
/* pixels */
"    +++++    ",
"    +++++    ",
"    +++++    ",
"    +++++    ",
"    ++'++    ",
"    ++#)+    ",
"    +(!&+    ",
"    +%!#+    ",
"!!!!'!!!&!!!!",
"!!!!!!!!!!!! ",
"  !!!!!!!!!  ",
"   !!!!!!!   ",
"   !!!!!!!   ",
"   !!#&#!!   ",
"   !$*+*$!!  ",
"  !!+++++!!  ",
"    +++++    ",
"    +++++    ",
"    +++++    ",
"    +++++    "
};
