/* XPM */
static char * 2Star[] = {
/* width height num_colors chars_per_pixel */
"9 20 28 1",
/* colors */
"  c None",
"! c #FFFFFF",
"# c #F2F8F4",
"$ c #E6F2EA",
"% c #DAEBE0",
"& c #D9EADD",
"' c #D5E9DC",
"( c #CEE5D6",
") c #CBE3D3",
"* c #C2DFCB",
"+ c #B5D8C1",
", c #A9D2B7",
"- c #9DCCAD",
". c #91C5A2",
"/ c #85BF99",
"0 c #85BF98",
"1 c #78B88E",
"2 c #6DB286",
"3 c #6CB284",
"4 c #60AC79",
"5 c #54A56F",
"6 c #489F65",
"7 c #3D9A59",
"8 c #3C995B",
"9 c #3C995A",
": c #3C985C",
"; c #3C985B",
"< c #3B995B",
/* pixels */
";;:   ;;<",
"887   889",
"887!! 889",
"887!! 889",
"--&!!!--/",
"4%!!!!!.9",
"88'!!!389",
"88$!!!189",
"85!!!!+89",
"842   189",
"887 ! 889",
"887!! 889",
"887!!!889",
"+(#!!!(*/",
"6,!!!!(59",
"88)!!!689",
"88!!!!089",
"83!! !+89",
"857   689",
"887   889"
};
