/* XPM */
static char * 3Star[] = {
/* width height num_colors chars_per_pixel */
"16 20 17 1",
/* colors */
"  c None",
"! c #FFFFFF",
"# c #FCEFEF",
"$ c #F6CFCF",
"% c #F6CCCC",
"& c #F3BBBB",
"' c #ED9191",
"( c #E97F7F",
") c #E87575",
"* c #E66F6F",
"+ c #E45F5F",
", c #E14F4F",
"- c #D91F1F",
". c #D91E1E",
"/ c #D60F0F",
"0 c #D50000",
"1 c #D40000",
/* pixels */
"  011  110 011  ",
"  011  110 011  ",
"  011  110 011  ",
"  011  1*0 011  ",
"  011  ,#. 011  ",
"  01/!!!!!!'11  ",
"  011 !!!!!011  ",
"  011 !!!! 011  ",
"  011 !*/&!011  ",
"  011 !110!011  ",
"  0+/  110 0+/  ",
"  0$(  110 0$(  ",
"!!!!!!!-1)!!!!!!",
" !!!!!!110!!!!!!",
"  !!!! 110 !!!! ",
" !%-,! 110!%-,! ",
" !011! 110!011! ",
"  011  110 011  ",
"  011  110 011  ",
"  011  110 011  "
};
