/* XPM */
static char * 4Star[] = {
/* width height num_colors chars_per_pixel */
"20 20 33 1",
/* colors */
"  c None",
"! c #FFFFFF",
"# c #FAF9F1",
"$ c #F9F8EE",
"% c #F8F6EB",
"& c #F5F4E3",
"' c #F0EED6",
"( c #EBE9C8",
") c #E6E3BA",
"* c #E4E2B6",
"+ c #E4E1B5",
", c #E1DEAD",
"- c #DFDCA8",
". c #DCD89F",
"/ c #DBD89D",
"0 c #DAD69A",
"1 c #D7D392",
"2 c #D2CE84",
"3 c #CFCA7B",
"4 c #CDC976",
"5 c #C8C367",
"6 c #C4BF5F",
"7 c #C3BD5B",
"8 c #C3BD5A",
"9 c #BEB84D",
": c #BCB649",
"; c #BAB443",
"< c #B9B340",
"= c #B9B240",
"> c #B4AD32",
"? c #AFA924",
"@ c #AFA825",
"A c #AFA824",
/* pixels */
"@@?   @@?  ?@A   ?@@",
"@@? ! @@?  ?@A ! ?@@",
"@@?!! @@?  ?@A !!?@@",
"@@?!!!@@?  ?@A!!!?@@",
"1(&!!!()4  4)'!!!&(1",
"@2#!!!(=?  ?9&!!!#2@",
"@@1!!!=@?  ?@;!!!,@@",
"@@)!!!2@?  ?@2!!!#@@",
"@@$! !,@?  ?@+! !%9@",
"@><   >@?  ?@:   ?>@",
"@@? ! @@?  ?@A ! ?@@",
"@@?!!!@@?  ?@A !!?@@",
"773!!!778  875!!!377",
"7#!!!!!'4  <(!!!!!!1",
"@='!!!1@?  ?@-!!!'9@",
"@@.!!!=@?  ?@6!!!,@@",
"@@'!!!1@?  ?@.!!!&@@",
"@>*  !1@?  ?@0!  />@",
"@@?   @@?  ?@A   ?@@",
"@@?   @@?  ?@A   ?@@"
};
