/* XPM */
static char * ATTACKER_xpm[] = {
/* width height num_colors chars_per_pixel */
"20 20 39 1",
/* colors */
"  c #FFFFFF",
"! c #FFFEFE",
"# c #FEFEFE",
"$ c #FCFAFB",
"% c #FCF9FA",
"& c #FBF7F8",
"' c #EFDEE4",
"( c #EEDFE4",
") c #EAD6DC",
"* c #E2C7CF",
"+ c #DFC1CA",
", c #DEBDC7",
"- c #DBB7C3",
". c #D8B2BE",
"/ c #D5ABB8",
"0 c #D4ABB8",
"1 c #CD9CAB",
"2 c #C3879A",
"3 c #C2879A",
"4 c #C28699",
"5 c #C18698",
"6 c #BC7A8F",
"7 c #B56D84",
"8 c #B36981",
"9 c #B36980",
": c #B36880",
"; c #AA5872",
"< c #A7516C",
"= c #A7506C",
"> c #A44B67",
"? c #A24864",
"@ c #A14662",
"A c #A04360",
"B c #9F415F",
"C c #9F405E",
"D c #9E405D",
"E c #9D3D5B",
"F c #9C3C5A",
"G c #9C3B5A",
/* pixels */
"EEEEEEEEEEEEEEEEEEEE",
"EEEEEEEEECCEEEEEEEEE",
"EEEEEEEE@++@EEEEEEEE",
"EEEEEEEE8##8EEEEEEEE",
"EEEEEEEE9##9EEEEEEEE",
"EEEEEEEE9##9EEEEEEEE",
"EEEEEEEE:##:EEEEEEEE",
"EEEEEEED0  /DEEEEEEE",
"EEEEEEA-!  !-AEEEEEE",
"EEEEE?*      *?EEEEE",
"EEEE<)        )<EEEE",
"EEE?'   &  &   (?EEE",
"EEE=& $.6##6.$ &=EEE",
"EEE>,,7E9##9E7,,>EEE",
"EEEEGFEE9##9EEFGEEEE",
"EEEEEEEE2!!3EEEEEEEE",
"EEEEEEB1%  %1BEEEEEE",
"EEEEEE;544445;EEEEEE",
"EEEEEEEEEEEEEEEEEEEE",
"EEEEEEEEEEEEEEEEEEEE"
};
