/* XPM */
static char * BOMBER_xpm[] = {
/* width height num_colors chars_per_pixel */
"20 20 37 1",
/* colors */
"  c #FEFEFE",
"! c #FDFDFD",
"# c #F9FBF9",
"$ c #F8FAF8",
"% c #F8F7F6",
"& c #F7F8F6",
"' c #DEEBDC",
"( c #DEEADC",
") c #D5E7D3",
"* c #C6DEC3",
"+ c #BFDBBD",
", c #BCD8BA",
"- c #BBD9B9",
". c #B4D7B3",
"/ c #AFD4AD",
"0 c #A7D1A6",
"1 c #97CA96",
"2 c #82BF80",
"3 c #81BF80",
"4 c #80BF7F",
"5 c #75B772",
"6 c #65B464",
"7 c #61B160",
"8 c #61B15F",
"9 c #4EAA4E",
": c #45A846",
"; c #45A845",
"< c #3FA63F",
"= c #3BA53C",
"> c #39A43A",
"? c #36A237",
"@ c #34A236",
"A c #33A234",
"B c #32A134",
"C c #2FA131",
"D c #2EA030",
"E c #2DA030",
/* pixels */
"CCCCCCCCCCCCCCCCCCCC",
"CCCCCCCCCAACCCCCCCCC",
"CCCCCCCC>++>CCCCCCCC",
"CCCCCCCC7!!7CCCCCCCC",
"CCCCCCCC7!!7CCCCCCCC",
"CCCCCCCC7!!7CCCCCCCC",
"CCCCCCCC8!!8CCCCCCCC",
"CCCCCCCB0  0BCCCCCCC",
"CCCCCC?.!  !.?CCCCCC",
"CCCCC=*      *=CCCCC",
"CCCC:)        ):CCCC",
"CCC='   &  &   (=CCC",
"CCC;% #/5!!5/# %;CCC",
"CCC<,-6C7!!7C6-,<CCC",
"CCCCEDCC7!!7CCDECCCC",
"CCCCCCCC2!!2CCCCCCCC",
"CCCCCC@1$  $1@CCCCCC",
"CCCCCC94333349CCCCCC",
"CCCCCCCCCCCCCCCCCCCC",
"CCCCCCCCCCCCCCCCCCCC"
};
