/* XPM */
static char * FIGHTER_xpm[] = {
/* width height num_colors chars_per_pixel */
"20 20 36 1",
/* colors */
"  c #FFFFFF",
"! c #FEFEFF",
"# c #FDFEFF",
"$ c #F8FBFE",
"% c #F7FAFE",
"& c #F5F8FD",
"' c #D5E4F8",
"( c #CADDF6",
") c #B6D0F3",
"* c #AFCBF2",
"+ c #AAC8F1",
", c #A3C4F0",
"- c #9CBFEE",
". c #93BAED",
"/ c #93B9ED",
"0 c #80ADE9",
"1 c #649CE5",
"2 c #619BE5",
"3 c #609BE5",
"4 c #5391E2",
"5 c #4286DF",
"6 c #3B83DF",
"7 c #2575DB",
"8 c #1D6ED9",
"9 c #1A6ED9",
": c #1269D8",
"; c #1167D7",
"< c #0F67D7",
"= c #0D65D7",
"> c #0A63D6",
"? c #0762D6",
"@ c #0561D6",
"A c #0560D5",
"B c #015ED5",
"C c #005ED5",
"D c #005DD5",
/* pixels */
"CCCCCCCCCCCCCCCCCCCC",
"CCCCCCCCC@@CCCCCCCCC",
"CCCCCCCC=**=CCCCCCCC",
"CCCCCCCC6##6CCCCCCCC",
"CCCCCCCC6##6CCCCCCCC",
"CCCCCCCC6##6CCCCCCCC",
"CCCCCCCC6##6CCCCCCCC",
"CCCCCCCA.  /ACCCCCCC",
"CCCCCC>,!  !,>CCCCCC",
"CCCCC;)      );CCCCC",
"CCCC8(        (8CCCC",
"CCC<'   &  &   '<CCC",
"CCC9& $-4##4-$ &9CCC",
"CCC:++5B6##6B5++:CCC",
"CCCCDDCC6##6CCDDCCCC",
"CCCCCCCC1!!1CCCCCCCC",
"CCCCCC?0%  %0?CCCCCC",
"CCCCCC73222237CCCCCC",
"CCCCCCCCCCCCCCCCCCCC",
"CCCCCCCCCCCCCCCCCCCC"
};
