/* XPM */
static char * MULTIROLE_xpm[] = {
/* width height num_colors chars_per_pixel */
"20 20 36 1",
/* colors */
"  c #FFFFFF",
"! c #FEFEFF",
"# c #FEFEFE",
"$ c #FBFBFD",
"% c #FBFAFC",
"& c #F9F8FC",
"' c #E8E3F1",
"( c #E2DCEE",
") c #D7CFE7",
"* c #D3CAE5",
"+ c #D0C7E3",
", c #CCC2E1",
"- c #C8BDDE",
". c #C3B8DC",
"/ c #B9ABD5",
"0 c #AA9ACC",
"1 c #AA99CC",
"2 c #A998CC",
"3 c #A08EC7",
"4 c #9783C2",
"5 c #9580C0",
"6 c #9480C0",
"7 c #947FC0",
"8 c #947FBF",
"9 c #8871B9",
": c #836BB5",
"; c #7F66B3",
"< c #7D63B2",
"= c #7D63B1",
"> c #7B61B1",
"? c #795FB0",
"@ c #785EAF",
"A c #775DAE",
"B c #775CAE",
"C c #755AAD",
"D c #7459AC",
/* pixels */
"CCCCCCCCCCCCCCCCCCCC",
"CCCCCCCCCAACCCCCCCCC",
"CCCCCCCC>**>CCCCCCCC",
"CCCCCCCC6##5CCCCCCCC",
"CCCCCCCC7##5CCCCCCCC",
"CCCCCCCC7##5CCCCCCCC",
"CCCCCCCC8##8CCCCCCCC",
"CCCCCCCB.  .BCCCCCCC",
"CCCCCC?,!  !,?CCCCCC",
"CCCCC<)      )<CCCCC",
"CCCC:(        (:CCCC",
"CCC='   &  &   '=CCC",
"CCC:& $-3##3-$ &:CCC",
"CCC;++4C7##6C4++;CCC",
"CCCCDDCC7##6CCDDCCCC",
"CCCCCCCC1!!0CCCCCCCC",
"CCCCCC@/%  %/@CCCCCC",
"CCCCCC92222229CCCCCC",
"CCCCCCCCCCCCCCCCCCCC",
"CCCCCCCCCCCCCCCCCCCC"
};
