/* XPM */
static char * pipbar_xpm[] = {
/* width height num_colors chars_per_pixel */
"178 7 39 1",
/* colors */
"  c #A8B4C9",
"! c #A6B7CC",
"# c #A5B3CA",
"$ c #A5B2C7",
"% c #A3B4CA",
"& c #A3B0D0",
"' c #A3AFC4",
"( c #A2B3C9",
") c #A2AEC3",
"* c #A2ACC2",
"+ c #A1B2C7",
", c #A1ADC2",
"- c #A1ACCA",
". c #A0B1C6",
"/ c #A0AAC0",
"0 c #9FB0C5",
"1 c #9FACCC",
"2 c #9DABC2",
"3 c #9DAACA",
"4 c #9AA7C7",
"5 c #0A1429",
"6 c #071328",
"7 c #05102E",
"8 c #031228",
"9 c #031030",
": c #031025",
"; c #020B1A",
"< c #010F26",
"= c #010E22",
"> c #001127",
"? c #001026",
"@ c #000F24",
"A c #000E24",
"B c #000D23",
"C c #000C22",
"D c #000C21",
"E c #000B2B",
"F c #000B21",
"G c #000219",
/* pixels */
"**--341;;**--341;;**--341;;**--341;;**--341;;**--341;;**--341;;**--341;;**--341;;**--341;;**--341;;**--341;;**--341;;**--341;;**--341;;**--341;;**--341;;**--341;;**--341;;**--341",
"/577E9&;;/577E9&;;/577E9&;;/577E9&;;/577E9&;;/577E9&;;/577E9&;;/577E9&;;/577E9&;;/577E9&;;/577E9&;;/577E9&;;/577E9&;;/577E9&;;/577E9&;;/577E9&;;/577E9&;;/577E9&;;/577E9&;;/577E9&",
"$6CB8F%;;$6CB8F%;;$6CB8F%;;$6CB8F%;;$6CB8F%;;$6CB8F%;;$6CB8F%;;$6CB8F%;;$6CB8F%;;$6CB8F%;;$6CB8F%;;$6CB8F%;;$6CB8F%;;$6CB8F%;;$6CB8F%;;$6CB8F%;;$6CB8F%;;$6CB8F%;;$6CB8F%;;$6CB8F%",
",=A<GB+;;,=A<GB+;;,=A<GB+;;,=A<GB+;;,=A<GB+;;,=A<GB+;;,=A<GB+;;,=A<GB+;;,=A<GB+;;,=A<GB+;;,=A<GB+;;,=A<GB+;;,=A<GB+;;,=A<GB+;;,=A<GB+;;,=A<GB+;;,=A<GB+;;,=A<GB+;;,=A<GB+;;,=A<GB+",
" DFC@?(;; DFC@?(;; DFC@?(;; DFC@?(;; DFC@?(;; DFC@?(;; DFC@?(;; DFC@?(;; DFC@?(;; DFC@?(;; DFC@?(;; DFC@?(;; DFC@?(;; DFC@?(;; DFC@?(;; DFC@?(;; DFC@?(;; DFC@?(;; DFC@?(;; DFC@?(",
"):8F>?.;;):8F>?.;;):8F>?.;;):8F>?.;;):8F>?.;;):8F>?.;;):8F>?.;;):8F>?.;;):8F>?.;;):8F>?.;;):8F>?.;;):8F>?.;;):8F>?.;;):8F>?.;;):8F>?.;;):8F>?.;;):8F>?.;;):8F>?.;;):8F>?.;;):8F>?.",
"')2#+0!;;')2#+0!;;')2#+0!;;')2#+0!;;')2#+0!;;')2#+0!;;')2#+0!;;')2#+0!;;')2#+0!;;')2#+0!;;')2#+0!;;')2#+0!;;')2#+0!;;')2#+0!;;')2#+0!;;')2#+0!;;')2#+0!;;')2#+0!;;')2#+0!;;')2#+0!"
};
