/* XPM */
static char * pips_xpm[] = {
/* width height num_colors chars_per_pixel */
"178 16 2 1",
/* colors */
"  c #232732",
"! c #020B1A",
/* pixels */
"       !!       !!       !!       !!       !!       !!       !!       !!       !!       !!       !!       !!       !!       !!       !!       !!       !!       !!       !!       ",
" !!!!  !! !!!!  !! !!!!  !! !!!!  !! !!!!  !! !!!!  !! !!!!  !! !!!!  !! !!!!  !! !!!!  !! !!!!  !! !!!!  !! !!!!  !! !!!!  !! !!!!  !! !!!!  !! !!!!  !! !!!!  !! !!!!  !! !!!!  ",
" !!! ! !! !!! ! !! !!! ! !! !!! ! !! !!! ! !! !!! ! !! !!! ! !! !!! ! !! !!! ! !! !!! ! !! !!! ! !! !!! ! !! !!! ! !! !!! ! !! !!! ! !! !!! ! !! !!! ! !! !!! ! !! !!! ! !! !!! ! ",
" !! !! !! !! !! !! !! !! !! !! !! !! !! !! !! !! !! !! !! !! !! !! !! !! !! !! !! !! !! !! !! !! !! !! !! !! !! !! !! !! !! !! !! !! !! !! !! !! !! !! !! !! !! !! !! !! !! !! !! ",
" ! !!! !! ! !!! !! ! !!! !! ! !!! !! ! !!! !! ! !!! !! ! !!! !! ! !!! !! ! !!! !! ! !!! !! ! !!! !! ! !!! !! ! !!! !! ! !!! !! ! !!! !! ! !!! !! ! !!! !! ! !!! !! ! !!! !! ! !!! ",
"  !!!! !!  !!!! !!  !!!! !!  !!!! !!  !!!! !!  !!!! !!  !!!! !!  !!!! !!  !!!! !!  !!!! !!  !!!! !!  !!!! !!  !!!! !!  !!!! !!  !!!! !!  !!!! !!  !!!! !!  !!!! !!  !!!! !!  !!!! ",
"       !!       !!       !!       !!       !!       !!       !!       !!       !!       !!       !!       !!       !!       !!       !!       !!       !!       !!       !!       ",
"!!!!!!!!!!!!!!!!!!!!!!!!!!!!!!!!!!!!!!!!!!!!!!!!!!!!!!!!!!!!!!!!!!!!!!!!!!!!!!!!!!!!!!!!!!!!!!!!!!!!!!!!!!!!!!!!!!!!!!!!!!!!!!!!!!!!!!!!!!!!!!!!!!!!!!!!!!!!!!!!!!!!!!!!!!!!!!!!!!",
"!!!!!!!!!!!!!!!!!!!!!!!!!!!!!!!!!!!!!!!!!!!!!!!!!!!!!!!!!!!!!!!!!!!!!!!!!!!!!!!!!!!!!!!!!!!!!!!!!!!!!!!!!!!!!!!!!!!!!!!!!!!!!!!!!!!!!!!!!!!!!!!!!!!!!!!!!!!!!!!!!!!!!!!!!!!!!!!!!!",
"       !!       !!       !!       !!       !!       !!       !!       !!       !!       !!       !!       !!       !!       !!       !!       !!       !!       !!       !!       ",
" !!!!  !! !!!!  !! !!!!  !! !!!!  !! !!!!  !! !!!!  !! !!!!  !! !!!!  !! !!!!  !! !!!!  !! !!!!  !! !!!!  !! !!!!  !! !!!!  !! !!!!  !! !!!!  !! !!!!  !! !!!!  !! !!!!  !! !!!!  ",
" !!! ! !! !!! ! !! !!! ! !! !!! ! !! !!! ! !! !!! ! !! !!! ! !! !!! ! !! !!! ! !! !!! ! !! !!! ! !! !!! ! !! !!! ! !! !!! ! !! !!! ! !! !!! ! !! !!! ! !! !!! ! !! !!! ! !! !!! ! ",
" !! !! !! !! !! !! !! !! !! !! !! !! !! !! !! !! !! !! !! !! !! !! !! !! !! !! !! !! !! !! !! !! !! !! !! !! !! !! !! !! !! !! !! !! !! !! !! !! !! !! !! !! !! !! !! !! !! !! !! ",
" ! !!! !! ! !!! !! ! !!! !! ! !!! !! ! !!! !! ! !!! !! ! !!! !! ! !!! !! ! !!! !! ! !!! !! ! !!! !! ! !!! !! ! !!! !! ! !!! !! ! !!! !! ! !!! !! ! !!! !! ! !!! !! ! !!! !! ! !!! ",
"  !!!! !!  !!!! !!  !!!! !!  !!!! !!  !!!! !!  !!!! !!  !!!! !!  !!!! !!  !!!! !!  !!!! !!  !!!! !!  !!!! !!  !!!! !!  !!!! !!  !!!! !!  !!!! !!  !!!! !!  !!!! !!  !!!! !!  !!!! ",
"       !!       !!       !!       !!       !!       !!       !!       !!       !!       !!       !!       !!       !!       !!       !!       !!       !!       !!       !!       "
};
