/* XPM */
static char * progress_under_xpm[] = {
/* width height num_colors chars_per_pixel */
"150 15 127 2",
/* colors */
"   c #556373",
"!  c #556371",
"#  c #556070",
"$  c #546272",
"%  c #546174",
"&  c #536276",
"'  c #53616E",
"(  c #536072",
")  c #526174",
"*  c #52606D",
"+  c #525F71",
",  c #525F6F",
"-  c #525E6C",
".  c #525D70",
"/  c #515E70",
"0  c #515E6E",
"1  c #515D72",
"2  c #515C6D",
"3  c #505F73",
"4  c #505D6F",
"5  c #505D6D",
"6  c #4F5E72",
"7  c #4F5C6A",
"8  c #4F5B6E",
"9  c #4D5A6D",
":  c #4C5A68",
";  c #4C596C",
"<  c #4B586A",
"=  c #4B5868",
">  c #465464",
"?  c #454F60",
"@  c #445163",
"A  c #435062",
"B  c #404D5D",
"C  c #344153",
"D  c #334052",
"E  c #333C49",
"F  c #303E4E",
"G  c #303946",
"H  c #2F3A4A",
"I  c #2E3B4D",
"J  c #2D3547",
"K  c #2C394B",
"L  c #2C3949",
"M  c #2B384A",
"N  c #2B3848",
"O  c #2B3647",
"P  c #2A3745",
"Q  c #2A3649",
"R  c #2A3546",
"S  c #293445",
"T  c #293347",
"U  c #292F3D",
"V  c #283646",
"W  c #283644",
"X  c #283548",
"Y  c #283343",
"Z  c #283341",
"[  c #283245",
"]  c #283142",
"^  c #283140",
"_  c #273545",
"`  c #273543",
"a  c #273449",
"b  c #273447",
"c  c #273240",
"d  c #273144",
"e  c #273142",
"f  c #27303F",
"g  c #27303D",
"h  c #272F41",
"i  c #263549",
"j  c #263441",
"k  c #263347",
"l  c #263345",
"m  c #263343",
"n  c #262F3E",
"o  c #262F3C",
"p  c #262E40",
"q  c #253340",
"r  c #253244",
"s  c #253242",
"t  c #253146",
"u  c #25313F",
"v  c #253043",
"w  c #253041",
"x  c #252E3D",
"y  c #252E3B",
"z  c #243445",
"{  c #243347",
"|  c #243143",
"}  c #243141",
"~  c #24313F",
" ! c #243045",
"!! c #24303E",
"#! c #242F42",
"$! c #242F40",
"%! c #233344",
"&! c #233246",
"'! c #233042",
"(! c #233040",
")! c #23303E",
"*! c #232F44",
"+! c #232E3F",
",! c #232E3D",
"-! c #232D3A",
".! c #223243",
"/! c #223145",
"0! c #222D3E",
"1! c #222D3C",
"2! c #222C38",
"3! c #212F3F",
"4! c #212F3D",
"5! c #212E41",
"6! c #212C3C",
"7! c #212C3A",
"8! c #202E3E",
"9! c #202E3C",
":! c #202D40",
";! c #1F2D3A",
"<! c #1F2C3E",
"=! c #1F2C3C",
">! c #1F232F",
"?! c #1E2C39",
"@! c #1E2B3D",
"A! c #1D2A3C",
"B! c #1B2635",
/* pixels */
"E y o g g g g g g o g y -!2!y G y o g g g g g g o g y -!2!y G y o g g g g g g o g y -!2!y G z z z z z z z z %!%!%!%!%!%!%!| | | | | | | | w +!R O S w J p ^ ^ ] ] ] ] h h f n n n n n n n n n n n n n n n x x x x x x x x n n n n n n n n f f f f f f f f o o o o o o o o o g g g g g g g U U U U U U U U >!",
"A b | '!'!'!'!'!'!'!| | r l Q ; b | '!'!'!'!'!'!'!| | r l Q ; b | '!'!'!'!'!'!'!| | r l Q ; i &!{ &!&!&!&!&!&!{ &!i &!i 3 &!&!&!&!&!&!&!&!/!/!/!i /!/!1 t d d d d d d d d T #!d v v . [ [ d d d d d d d d w e e w # S w w $!w w w w w w w w w e 2 w Y w w u u u u u u u u !!u - u u u ,!c (!(!(!(!(!(!$!$!!!",
"8 Q r | | | | | | '!5!:!5!'!l 8 Q r | | | | | | '!5!:!5!'!l 8 Q r | | | | | | '!5!:!5!'!l 8 i &!{ &!&!&!&!&!&!{ &!i &!i 3 &!&!&!&!&!&!&!&!/!/!/!i /!/!1 t d d d d d d d d T #!d v v . [ [ d d d d d d d d w e e w # S w w $!w w w w w w w w w e 2 w Y w w u u u u u u u u !!u - u u u ,!c (!(!(!(!(!(!$!$!!!",
"/ r r | | | | | | | | 5!5!'!r % r r | | | | | | | | 5!5!'!r % r r | | | | | | | | 5!5!'!r % i &!{ &!&!&!&!&!&!{ &!i &!i 3 &!&!&!&!&!&!&!&!/!/!/!i /!/!6 &!t t t t t t t t a *!t  ! !1 k k t t t t t t t t | r r | ( b | | '!| | | | | | | | | r 4 | l | | } } } } } } } } (!} 0 } } } 3!s (!(!(!(!(!(!$!$!!!",
"/ r r | | | | | | | | '!'!5!r / r r | | | | | | | | '!'!5!r / r r | | | | | | | | '!'!5!r / i &!{ &!&!&!&!&!&!{ &!i &!i 3 &!&!&!&!&!&!&!&!/!/!/!i /!/!6 &!t t t t t t t t a *!t  ! !1 k k t t t t t t t t | r r | ( b | | '!| | | | | | | | | r 4 | l | | } } } } } } } } (!} 0 } } } 3!s (!(!(!(!(!(!$!$!!!",
"/ r r .!.!.!.!.!.!.!.!| '!'!| 8 r r .!.!.!.!.!.!.!.!| '!'!| 8 r r .!.!.!.!.!.!.!.!| '!'!| 8 i &!{ &!&!&!&!&!&!{ &!i &!i 3 &!&!&!&!&!&!&!&!/!/!/!i /!/!6 &!t t t t t t t t a *!t  ! !1 k k t t t t t t t t | r r | ( b | | '!| | | | | | | | | r 4 | l | | } } } } } } } } (!} 0 } } } 3!s (!(!(!(!(!(!$!$!!!",
"/ r r .!.!.!.!.!.!.!.!| '!'!| 4 r r .!.!.!.!.!.!.!.!| '!'!| 4 r r .!.!.!.!.!.!.!.!| '!'!| 4 i &!{ &!&!&!&!&!&!{ &!i &!i 3 &!&!&!&!&!&!&!&!/!/!/!i /!/!6 &!t t t t t t t t a *!t  ! !1 k k t t t t t t t t | r r | ( b | | '!| | | | | | | | | r 4 | l | | } } } } } } } } (!} 0 } } } 3!s (!(!(!(!(!(!$!$!!!",
"/ r r .!.!.!.!.!.!.!.!| | | | 4 r r .!.!.!.!.!.!.!.!| | | | 4 r r .!.!.!.!.!.!.!.!| | | | 4 i &!i /!&!&!&!&!&!{ &!i &!{ ) &!&!&!&!&!&!&!&!/!/!/!i /!&!6 &!t t t t t t t t a *!t  ! !1 k k t t t t t t t t | r | | ( b '!| | | | | | | | | | '!r 4 | | | | } } } } } } } } (!} 0 (!} } 3!s (!(!(!(!(!(!$!$!,!",
"/ r r .!.!.!.!.!.!.!.!| | | | / r r .!.!.!.!.!.!.!.!| | | | / r r .!.!.!.!.!.!.!.!| | | | / i { i /!&!&!&!&!&!{ &!i &!{ & &!&!&!&!&!&!&!&!&!&!&!i /!{ 3 &!t t t t t t t t a *!t  ! !1 k k k t t t t t t t r r '!r ( A!| '!r r r r r r r r r '!l 4 | | | | } } } } } } } } (!} 0 3!} (!3!} (!(!(!(!(!(!$!$!,!",
"/ l l %!%!%!%!%!%!%!%!| | | | + l l %!%!%!%!%!%!%!%!| | | | + l l %!%!%!%!%!%!%!%!| | | | + l l X | :!5!r '!5!| | b | l % Q | | | r r r r | r r '!r l + | | | | | | | | | @!5!| r '!+ r 5!r l l l l l r r } s (!} , } m 3!} } } } } } } } } (!m   } 3!} } ~ ~ ~ ~ ~ ~ )!)!)!~ ! 9!` )!` ~ ~ ~ ~ ~ ~ ~ u u 1!",
"/ l l %!%!%!%!%!%!%!%!| | | | + l l %!%!%!%!%!%!%!%!| | | | + l l %!%!%!%!%!%!%!%!| | | | + l l b r | l Q b b b b b '!l % l | | | r r r | | l l l | b ( | r r r r r r r r | r X X l ( X l r '!'!'!'!'!| | s } (!s , } _ 3!} } } } } } } } } (!s , (!8!} } ~ ~ ~ ~ ~ ~ ~ ~ )!~ * ?!~ )!)!)!~ ~ ~ ~ ~ ~ u u 7!",
"+ l l %!%!%!%!%!.!.!.!'!| | | + l l %!%!%!%!%!.!.!.!'!| | | + l l %!%!%!%!%!.!.!.!'!| | | + X l b b b Q X r X b l | 5!l 4 r r r r r l r | | '!5!b '!'!4 '!r r r r r r r r l 5!l r r 4 | r r r r r r r r l s s V s $ L _ s } } } } } } (!(!(!} s 5 (!s s } ~ ~ ~ ~ ~ ~ ~ ~ q q ' ~ ~ )!)!` ~ ~ ~ ~ ~ ~ u u 1!",
"+ l l %!%!%!%!%!.!.!%!'!| | | + l l %!%!%!%!%!.!.!%!'!| | | + l l %!%!%!%!%!.!.!%!'!| | | + M r | | | r 5!5!l r l r | M / r r r r l l r r r | '!K r | 4 r | | | | | | | | Q '!b r r 9 | r r r r r r r r r } 3!V (!0 m (!} } (!(!(!(!(!(!(!8!} } = (!V 8!} )!)!)!)!)!)!)!~ ~ )!7 ~ )!)!;!j 4!4!4!4!4!4!,!,!u ",
"< l r } } } } } } } (!$!e H e ? l r } } } } } } } (!$!e H e ? l r } } } } } } } (!$!e H e ? K b r b l X '!<!l r r l '!K 9 | | | | | r r l l r r I l l @ X b b b b b b b b K l b b b A r Q r r r r r r r l s } N s > m (!} } } } } } } } } } s m B s N (!} q j j j j j j j ` ~ : )!4!4!9!` j j j j j j Z Z 1!",
"I r | } (!(!(!(!(!3!8!0!0!e 6!H r | } (!(!(!(!(!3!8!0!0!e 6!H r | } (!(!(!(!(!3!8!0!0!e 6!H r | '!r | Q | | Q r l :!l | K | | | | | | | | '!5!<!r @!<!D '!'!'!'!'!'!'!'!| '!'!:!'!5!C @!'!'!'!'!'!'!'!'!'!(!3!s 3!L m _ (!(!(!(!(!(!(!3!3!8!3!(!F 8!s =!8!4!)!)!)!)!)!)!)!4!;!P W 9!9!;!)!)!)!)!)!)!)!!!!!B!"
};
