/* XPM */
static char * SPW_xpm[] = {
/* width height num_colors chars_per_pixel */
"20 20 23 1",
/* colors */
"  c #FFFFFF",
"! c #FEFEFE",
"# c #F6F7F8",
"$ c #F1F3F5",
"% c #C4CBD3",
"& c #C3CAD3",
"' c #B7BFCA",
"( c #8E9AAB",
") c #8996A8",
"* c #8795A6",
"+ c #808EA1",
", c #738398",
"- c #6E7E94",
". c #6E7E93",
"/ c #546780",
"0 c #536680",
"1 c #4C607A",
"2 c #4B5F79",
"3 c #495D78",
"4 c #465B76",
"5 c #455A76",
"6 c #445975",
"7 c #425773",
/* pixels */
"77777777777777777777",
"77777777744777777777",
"777777771&&177777777",
"77777777-!!.77777777",
"77777777.!!.77777777",
"77777772'  '27777777",
"7777770%$  $%0777777",
"77777753,!!,35777777",
"77777777-!!-77777777",
"77777777-!!-77777777",
"77777777-!!-77777777",
"77777777-!!-77777777",
"77777777-!!-77777777",
"77777777-!!-77777777",
"77777777-!!-77777777",
"77777777+!!+77777777",
"7777776(#  #(6777777",
"777777/*))))*/777777",
"77777777777777777777",
"77777777777777777777"
};
